<?xml version="1.0" encoding="iso-8859-1"?>
<!-- Generator: Adobe Illustrator 19.0.0, SVG Export Plug-In . SVG Version: 6.00 Build 0)  -->
<svg version="1.1" id="Capa_1" xmlns="http://www.w3.org/2000/svg" xmlns:xlink="http://www.w3.org/1999/xlink" x="0px" y="0px"
	 viewBox="0 0 512 512" style="enable-background:new 0 0 512 512;" xml:space="preserve">
<g>
	<g>
		<path d="M331.831,75.491c-27.751,0-50.327-22.577-50.327-50.328C281.504,11.267,270.237,0,256.34,0
			c-13.897,0-25.164,11.267-25.164,25.164v298.533c-14.905-8.683-32.206-13.684-50.665-13.684
			c-55.689,0-100.996,45.306-100.996,100.996C79.516,466.695,124.822,512,180.511,512c55.687,0,100.992-45.305,100.992-100.992
			V112.277c14.818,8.594,32,13.541,50.327,13.541c27.751,0,50.328,22.577,50.328,50.328c0,13.897,11.267,25.164,25.164,25.164
			c13.897,0,25.164-11.267,25.164-25.164C432.486,120.645,387.332,75.491,331.831,75.491z M180.511,461.672
			c-27.938,0-50.668-22.728-50.668-50.665c0-27.938,22.73-50.668,50.668-50.668c27.937,0,50.665,22.73,50.665,50.668
			C231.176,438.945,208.448,461.672,180.511,461.672z"/>
	</g>
</g>
<g>
</g>
<g>
</g>
<g>
</g>
<g>
</g>
<g>
</g>
<g>
</g>
<g>
</g>
<g>
</g>
<g>
</g>
<g>
</g>
<g>
</g>
<g>
</g>
<g>
</g>
<g>
</g>
<g>
</g>
</svg>
