<?xml version="1.0" encoding="iso-8859-1"?>
<!-- Generator: Adobe Illustrator 22.0.0, SVG Export Plug-In . SVG Version: 6.00 Build 0)  -->
<svg xmlns="http://www.w3.org/2000/svg" xmlns:xlink="http://www.w3.org/1999/xlink" version="1.1" x="0px" y="0px" viewBox="0 0 60 60" style="enable-background:new 0 0 60 60;" xml:space="preserve" width="512" height="512">
<g id="_x33_2-Musical_Script">
	<path d="M57,8h-8c-0.552,0-1-0.447-1-1V5c0-2.757,2.243-5,5-5s5,2.243,5,5v2C58,7.553,57.552,8,57,8z M50,6h6V5   c0-1.654-1.346-3-3-3s-3,1.346-3,3V6z"/>
	<path d="M54.998,60H5.002C2.244,60,0,57.756,0,54.998V52c0-0.553,0.448-1,1-1h23c0.334,0,0.646,0.167,0.832,0.445L26.535,54h6.93   l1.703-2.555C35.354,51.167,35.666,51,36,51h23c0.552,0,1,0.447,1,1v2.998C60,57.756,57.756,60,54.998,60z M2,53v1.998   C2,56.653,3.347,58,5.002,58h49.997C56.653,58,58,56.653,58,54.998V53H36.535l-1.703,2.555C34.646,55.833,34.334,56,34,56h-8   c-0.334,0-0.646-0.167-0.832-0.445L23.465,53H2z"/>
	<path d="M34,56h-8c-0.334,0-0.646-0.167-0.832-0.445L23.465,53H11c-0.552,0-1-0.447-1-1V5c0-2.757,2.243-5,5-5h38   c0.552,0,1,0.447,1,1s-0.448,1-1,1c-1.654,0-3,1.346-3,3v47c0,0.553-0.448,1-1,1H36.535l-1.703,2.555   C34.646,55.833,34.334,56,34,56z M26.535,54h6.93l1.703-2.555C35.354,51.167,35.666,51,36,51h12V5c0-1.125,0.373-2.164,1.002-3H15   c-1.654,0-3,1.346-3,3v46h12c0.334,0,0.646,0.167,0.832,0.445L26.535,54z"/>
	<g>
		<path d="M11,53H7c-0.552,0-1-0.447-1-1V22c0-0.553,0.448-1,1-1h4c0.552,0,1,0.447,1,1v30C12,52.553,11.552,53,11,53z M8,51h2V23H8    V51z"/>
		<path d="M53,53h-4c-0.552,0-1-0.447-1-1V22c0-0.553,0.448-1,1-1h4c0.552,0,1,0.447,1,1v30C54,52.553,53.552,53,53,53z M50,51h2V23    h-2V51z"/>
	</g>
	<g>
		<path d="M11,53H3c-0.552,0-1-0.447-1-1V20.469C2,18.556,3.556,17,5.469,17H11c0.552,0,1,0.447,1,1v34C12,52.553,11.552,53,11,53z     M4,51h6V19H5.469C4.659,19,4,19.659,4,20.469V51z"/>
		<path d="M57,53h-8c-0.552,0-1-0.447-1-1V18c0-0.553,0.448-1,1-1h5.531C56.444,17,58,18.556,58,20.469V52    C58,52.553,57.552,53,57,53z M50,51h6V20.469C56,19.659,55.341,19,54.531,19H50V51z"/>
	</g>
	<path d="M24,46h-8c-0.552,0-1-0.447-1-1s0.448-1,1-1h8c0.552,0,1,0.447,1,1S24.552,46,24,46z"/>
	<path d="M38,46H28c-0.552,0-1-0.447-1-1s0.448-1,1-1h10c0.552,0,1,0.447,1,1S38.552,46,38,46z"/>
	<path d="M44,46h-2c-0.552,0-1-0.447-1-1s0.448-1,1-1h2c0.552,0,1,0.447,1,1S44.552,46,44,46z"/>
	<path d="M44,41h-8c-0.552,0-1-0.447-1-1s0.448-1,1-1h8c0.552,0,1,0.447,1,1S44.552,41,44,41z"/>
	<path d="M32,41H22c-0.552,0-1-0.447-1-1s0.448-1,1-1h10c0.552,0,1,0.447,1,1S32.552,41,32,41z"/>
	<path d="M36,36H25c-0.552,0-1-0.447-1-1s0.448-1,1-1h11c0.552,0,1,0.447,1,1S36.552,36,36,36z"/>
	<path d="M18,41h-2c-0.552,0-1-0.447-1-1s0.448-1,1-1h2c0.552,0,1,0.447,1,1S18.552,41,18,41z"/>
	<path d="M21,36h-5c-0.552,0-1-0.447-1-1s0.448-1,1-1h5c0.552,0,1,0.447,1,1S21.552,36,21,36z"/>
	<path d="M44,36h-4c-0.552,0-1-0.447-1-1s0.448-1,1-1h4c0.552,0,1,0.447,1,1S44.552,36,44,36z"/>
	<path d="M24,29c-2.206,0-4-1.794-4-4s1.794-4,4-4s4,1.794,4,4S26.206,29,24,29z M24,23c-1.103,0-2,0.897-2,2s0.897,2,2,2   s2-0.897,2-2S25.103,23,24,23z"/>
	<path d="M34,25c-2.206,0-4-1.794-4-4s1.794-4,4-4s4,1.794,4,4S36.206,25,34,25z M34,19c-1.103,0-2,0.897-2,2s0.897,2,2,2   s2-0.897,2-2S35.103,19,34,19z"/>
	<path d="M27,26c-0.552,0-1-0.447-1-1V10c0-0.553,0.448-1,1-1s1,0.447,1,1v15C28,25.553,27.552,26,27,26z"/>
	<path d="M37,22c-0.552,0-1-0.447-1-1V6c0-0.553,0.448-1,1-1s1,0.447,1,1v15C38,21.553,37.552,22,37,22z"/>
	<path d="M27,15c-0.197,0-0.393-0.059-0.561-0.172C26.165,14.642,26,14.332,26,14v-4c0-0.409,0.249-0.776,0.629-0.929l10-4   c0.308-0.123,0.657-0.085,0.932,0.101C37.835,5.358,38,5.668,38,6v4c0,0.409-0.249,0.776-0.629,0.929l-10,4   C27.251,14.977,27.125,15,27,15z M28,10.677v1.847l8-3.2V7.477L28,10.677z"/>
</g>

</svg>
